<?xml version="1.0" encoding="utf-8"?>
<!-- Generator: Adobe Illustrator 21.1.0, SVG Export Plug-In . SVG Version: 6.00 Build 0)  -->
<svg version="1.1" id="Layer_1" xmlns="http://www.w3.org/2000/svg" xmlns:xlink="http://www.w3.org/1999/xlink" x="0px" y="0px"
	 viewBox="0 0 1000 468" style="enable-background:new 0 0 1000 468;" xml:space="preserve">
<g>
	<g>
		<path d="M303.2,334.7v-173h-34.9v-26.2h34.9V50.8h30.6v84.7h34.9v26.2h-34.9v173H303.2z"/>
		<path d="M624,334.7h-29.3V222.9c0-44.1-22.7-66-55.9-66c-38.4,0-63.8,29.3-65.1,63.8v114h-28.8V135.5h28.8v13.1
			c0,6.6-0.4,12.7-0.9,18.8c14.8-21.4,39.7-36.3,68.6-36.3c50.2,0,82.6,30.6,82.6,91.7V334.7z"/>
		<path d="M714.5,464l59.4-134.1l-80.4-194.4h32.8l64.2,155.9l69-155.9h33.2l-12.7,29.7l-75.6,169.5L747.3,464H714.5z"/>
		<path d="M968.3,289.3c13.5,0,24.9,11.4,24.9,24.9c0,13.5-11.4,24.9-24.9,24.9c-13.5,0-24.9-11.4-24.9-24.9
			C943.4,300.6,954.8,289.3,968.3,289.3z"/>
	</g>
	<path d="M6.8,331.6V4h30.6v168.2c1.7-2.2,3.5-4.4,5.5-6.6c18.2-20.4,40.5-30.6,67-30.6c26.5,0,48.9,10.2,67,30.6
		c17.6,19.8,26.4,43.1,26.4,69.9s-8.8,50.1-26.4,69.9c-18.2,20.4-40.5,30.6-67,30.6c-26.5,0-48.9-10.2-67-30.6
		c-1.9-2.2-3.7-4.4-5.5-6.6v32.8H6.8z M153.3,186.6c-13-14-29.1-21-48.3-21s-35.2,7-48.3,21c-13,13.9-19.4,30.2-19.4,48.9
		c0,18.7,6.5,35,19.4,48.9c13,14,29.1,21,48.3,21s35.2-7,48.3-21c13-13.9,19.4-30.2,19.4-48.9C172.8,216.8,166.3,200.5,153.3,186.6z
		"/>
</g>
</svg>
