<?xml version="1.0" encoding="UTF-8"?><svg id="a" xmlns="http://www.w3.org/2000/svg" viewBox="0 0 213.46 230.68"><defs><style>.b{fill:#fff;font-family:BebasNeue-Regular, Bebas Neue;font-size:68.52px;}.c{letter-spacing:0em;}.d{fill:none;stroke:#fff;stroke-miterlimit:10;stroke-width:2.36px;}</style></defs><g><path d="M4.84,225.31c-3.23-3.58-4.84-8.71-4.84-15.4v-4.72H12.27v5.66c0,5.35,2.24,8.02,6.73,8.02,2.2,0,3.87-.65,5.01-1.95,1.14-1.3,1.71-3.4,1.71-6.31,0-3.46-.79-6.51-2.36-9.15-1.57-2.63-4.48-5.8-8.73-9.5-5.35-4.72-9.09-8.99-11.21-12.8-2.12-3.81-3.19-8.12-3.19-12.92,0-6.53,1.65-11.58,4.96-15.16,3.3-3.58,8.1-5.37,14.4-5.37s10.92,1.79,14.1,5.37c3.19,3.58,4.78,8.71,4.78,15.4v3.42h-12.27v-4.25c0-2.83-.55-4.9-1.65-6.2-1.1-1.3-2.71-1.95-4.84-1.95-4.33,0-6.49,2.64-6.49,7.91,0,2.99,.81,5.78,2.42,8.38,1.61,2.6,4.54,5.74,8.79,9.44,5.43,4.72,9.16,9.01,11.21,12.86,2.04,3.86,3.07,8.38,3.07,13.57,0,6.77-1.67,11.96-5.01,15.58-3.34,3.62-8.2,5.43-14.57,5.43s-11.05-1.79-14.28-5.37Z"/><path d="M50.27,225.25c-3.38-3.62-5.07-8.73-5.07-15.34v-43.42c0-6.61,1.69-11.72,5.07-15.34,3.38-3.62,8.26-5.43,14.63-5.43s11.25,1.81,14.63,5.43c3.38,3.62,5.07,8.73,5.07,15.34v43.42c0,6.61-1.69,11.72-5.07,15.34-3.38,3.62-8.26,5.43-14.63,5.43s-11.25-1.81-14.63-5.43Zm21.36-14.51v-45.08c0-5.43-2.24-8.14-6.73-8.14s-6.73,2.71-6.73,8.14v45.08c0,5.43,2.24,8.14,6.73,8.14s6.73-2.71,6.73-8.14Z"/><path d="M93.34,146.9h12.98v70.8h21.36v11.8h-34.34v-82.6Z"/><path d="M133.93,146.9h35.4v11.8h-22.42v21.83h17.82v11.8h-17.82v25.37h22.42v11.8h-35.4v-82.6Z"/><path d="M179.59,225.31c-3.23-3.58-4.84-8.71-4.84-15.4v-4.72h12.27v5.66c0,5.35,2.24,8.02,6.73,8.02,2.2,0,3.87-.65,5.02-1.95,1.14-1.3,1.71-3.4,1.71-6.31,0-3.46-.79-6.51-2.36-9.15-1.57-2.63-4.48-5.8-8.73-9.5-5.35-4.72-9.09-8.99-11.21-12.8-2.12-3.81-3.19-8.12-3.19-12.92,0-6.53,1.65-11.58,4.96-15.16,3.3-3.58,8.1-5.37,14.4-5.37s10.92,1.79,14.1,5.37c3.19,3.58,4.78,8.71,4.78,15.4v3.42h-12.27v-4.25c0-2.83-.55-4.9-1.65-6.2-1.1-1.3-2.71-1.95-4.84-1.95-4.33,0-6.49,2.64-6.49,7.91,0,2.99,.81,5.78,2.42,8.38,1.61,2.6,4.54,5.74,8.79,9.44,5.43,4.72,9.16,9.01,11.21,12.86,2.04,3.86,3.07,8.38,3.07,13.57,0,6.77-1.67,11.96-5.01,15.58-3.34,3.62-8.2,5.43-14.57,5.43s-11.05-1.79-14.28-5.37Z"/></g><g><text class="b" transform="translate(57.22 59.82)"><tspan x="0" y="0">SOL</tspan><tspan class="c" x="76.47" y="0">E</tspan><tspan x="101.48" y="0">S</tspan></text><rect class="d" x="48.21" y="1.18" width="144.65" height="72.02"/></g></svg>